<svg width="16" height="16" viewBox="0 0 16 16" fill="none" xmlns="http://www.w3.org/2000/svg">
<g id="folder, open">
<path id="Vector 191 (Stroke)" d="M0.882055 2.61538C0.882055 1.72323 1.56494 1 2.40733 1H5.21783C6.19174 1 7.0083 1.60303 7.56826 2.27505C7.985 2.77518 8.48678 3.15385 9.01685 3.15385H13.5934C14.4362 3.15385 15.1179 3.87757 15.1179 4.76923V5.45774C15.6971 5.74349 16.0732 6.40195 15.988 7.12344L15.3367 12.6416C15.1777 13.9889 14.0963 15 12.8142 15H3.18579C1.90374 15 0.822319 13.9889 0.6633 12.6416L0.0120031 7.12344C-0.0731522 6.40195 0.302912 5.74349 0.882055 5.45774V2.61538ZM1.8989 5.30769H14.1011V4.76923C14.1011 4.47136 13.8737 4.23077 13.5934 4.23077H9.01685C8.03671 4.23077 7.2775 3.55367 6.80584 2.98763C6.34641 2.43626 5.78454 2.07692 5.21783 2.07692H2.40733C2.12653 2.07692 1.8989 2.318 1.8989 2.61538V5.30769ZM1.5255 6.38462C1.21968 6.38462 0.983068 6.66848 1.021 6.98987L1.6723 12.5081C1.76771 13.3164 2.41656 13.9231 3.18579 13.9231H12.8142C13.5834 13.9231 14.2323 13.3164 14.3277 12.5081L14.979 6.98986C15.0169 6.66848 14.7803 6.38462 14.4745 6.38462H1.5255Z" fill="#009EF7"/>
<path id="Rectangle 429" d="M0.5 6H15.5L14.5 14H1.5L0.5 6Z" fill="#009EF7"/>
</g>
</svg>
