<svg width="17" height="16" viewBox="0 0 17 16" fill="none" xmlns="http://www.w3.org/2000/svg">
<g id="folder, open">
<path id="Union" d="M0.5476 4.09102L0.507082 3.15385C0.507082 1.96431 1.42429 1 2.55571 1H6.31656C6.85989 1 7.38097 1.22692 7.76516 1.63085L8.61373 2.523C8.99792 2.92692 9.519 3.15385 10.0623 3.15385H14.1407C15.3453 3.15385 16.2899 4.24136 16.1809 5.50269L15.529 13.0412C15.4331 14.1506 14.5484 15 13.4888 15H2.89009C1.83053 15 0.945798 14.1506 0.84987 13.0412L0.198033 5.5027C0.152907 4.98081 0.288168 4.48868 0.5476 4.09102ZM2.23825 4.23077C1.63592 4.23077 1.16361 4.77453 1.21814 5.4052L1.86998 12.9437C1.91794 13.4984 2.36031 13.9231 2.89009 13.9231H13.4888C14.0186 13.9231 14.461 13.4984 14.5089 12.9437L15.1608 5.40519C15.2153 4.77453 14.743 4.23077 14.1407 4.23077H2.23825ZM7.04086 2.39235C6.84876 2.19038 6.58822 2.07692 6.31656 2.07692H2.55571C1.99646 2.07692 1.54188 2.54813 1.53158 3.13352L1.53803 3.28269C1.756 3.19941 1.99168 3.15385 2.23825 3.15385H7.76516L7.04086 2.39235Z" fill="#B5B5C3"/>
</g>
</svg>
