<svg width="31" height="36" viewBox="0 0 31 36" fill="none" xmlns="http://www.w3.org/2000/svg">
<g id="Group 32">
<rect id="Rectangle 441" x="5.53125" y="4.33447" width="25.2728" height="26.7816" rx="1" fill="white"/>
<rect id="Rectangle 444" x="16.5625" y="9" width="10" height="2" rx="1" fill="#13A650"/>
<rect id="Rectangle 447" x="16.5625" y="24" width="10" height="2" rx="1" fill="#13A650"/>
<rect id="Rectangle 445" x="16.5625" y="14" width="10" height="2" rx="1" fill="#13A650"/>
<rect id="Rectangle 446" x="16.5625" y="19" width="10" height="2" rx="1" fill="#13A650"/>
<path id="Rectangle 440" d="M0.25 4.55823C0.25 4.05969 0.617198 3.63731 1.11089 3.56795L21.366 0.722522C21.9677 0.637995 22.5051 1.10519 22.5051 1.7128V34.1151C22.5051 34.7228 21.9677 35.1899 21.366 35.1054L1.11089 32.26C0.617197 32.1906 0.25 31.7682 0.25 31.2697V4.55823Z" fill="#13A650"/>
<g id="Mask group">
<mask id="mask0_130_1720" style="mask-type:alpha" maskUnits="userSpaceOnUse" x="5" y="12" width="10" height="11">
<path id="Rectangle 442" d="M5.58203 14.2774C5.58203 13.744 6.00074 13.3044 6.53354 13.2786L13.5371 12.9386C14.1077 12.9109 14.5856 13.3661 14.5856 13.9374V21.8905C14.5856 22.4618 14.1077 22.917 13.5371 22.8893L6.53355 22.5493C6.00074 22.5234 5.58203 22.0839 5.58203 21.5505V14.2774Z" fill="#D9D9D9"/>
</mask>
<g mask="url(#mask0_130_1720)">
<path id="X" d="M7.9611 13.0103L10.0161 16.3832H10.0855L12.1543 13.0103H14.5148L11.4462 17.9139L14.5842 22.8176H12.1682L10.0855 19.4446H10.0161L7.93333 22.8176H5.53125L8.68312 17.9139L5.58679 13.0103H7.9611Z" fill="white"/>
</g>
</g>
</g>
</svg>
