<svg width="38" height="42" viewBox="0 0 38 42" fill="none" xmlns="http://www.w3.org/2000/svg">
<path d="M8.87793 1.79736H27.3677L32.6145 9L36.8033 12V27V40.5H8.87793V1.79736Z" fill="white"/>
<path d="M10.3265 42C9.3166 42 8.47342 41.6403 7.79689 40.9208C7.12037 40.2014 6.7821 39.3047 6.7821 38.2308V3.76921C6.7821 2.69529 7.12037 1.79861 7.79689 1.07917C8.47342 0.359722 9.3166 0 10.3265 0H26.1538C26.6389 0 27.1012 0.101715 27.5408 0.305143C27.9804 0.508532 28.3591 0.779255 28.677 1.11732L36.4493 9.38268C36.7672 9.72074 37.0218 10.1235 37.213 10.591C37.4043 11.0585 37.5 11.5502 37.5 12.066V38.2308C37.5 39.3047 37.1617 40.2014 36.4852 40.9208C35.8087 41.6403 34.9655 42 33.9556 42H10.3265ZM26.5293 9.8V2.33333H10.3265C9.98892 2.33333 9.67949 2.4829 9.39817 2.78203C9.11688 3.08121 8.97624 3.41026 8.97624 3.76921V38.2308C8.97624 38.5897 9.11688 38.9188 9.39817 39.218C9.67949 39.5171 9.98892 39.6667 10.3265 39.6667H33.9556C34.2932 39.6667 34.6026 39.5171 34.8839 39.218C35.1652 38.9188 35.3058 38.5897 35.3058 38.2308V11.6667H28.2838C27.7864 11.6667 27.3697 11.4878 27.0335 11.13C26.6974 10.7722 26.5293 10.3289 26.5293 9.8Z" fill="#CCCCCC"/>
<rect x="13.2604" y="18.9434" width="7.42492" height="2.74138" fill="#CCCCCC"/>
<rect x="23.6953" y="18.9439" width="7.42492" height="2.74138" fill="#CCCCCC"/>
<rect x="13.2604" y="29.9092" width="7.42492" height="2.74138" fill="#CCCCCC"/>
<rect x="23.6953" y="29.909" width="7.42492" height="2.74138" fill="#CCCCCC"/>
<rect x="13.2604" y="24.4263" width="7.42492" height="2.74138" fill="#CCCCCC"/>
<rect x="23.6953" y="24.4265" width="7.42492" height="2.74138" fill="#CCCCCC"/>
<rect x="0.5" y="12.0908" width="17.8626" height="19.1897" rx="1" fill="#1E6E42"/>
<path d="M7.13464 16.8884L9.3741 19.963H9.47363L11.7297 16.8884H14.8981L11.2652 21.6858L15.0142 26.4832H11.7629L9.47363 23.3821H9.3741L7.08487 26.4832H3.8501L7.58253 21.6858L3.93304 16.8884H7.13464Z" fill="white"/>
</svg>
