<svg width="40" height="24" viewBox="0 0 40 24" fill="none" xmlns="http://www.w3.org/2000/svg">
<g id="logo-small">
<path id="Vector" d="M10.5087 9.47555C8.52624 8.56974 6.88224 7.83722 6.88224 6.35248C6.88224 5.22219 7.80498 4.38333 9.64239 4.38333C10.2445 4.38657 10.8449 4.44592 11.4355 4.56055C11.7255 4.61265 12.0191 4.64293 12.3139 4.65113C13.9257 4.65113 14.8202 3.72169 15.4206 1.94946L15.6664 1.22875C13.6749 0.425875 11.5428 0.00857184 9.38854 0C3.96092 0 1.096 3.40663 1.10003 6.93141C1.0492 8.42275 1.56931 9.87899 2.55868 11.0154C3.71109 12.3229 5.35106 13.1776 6.88627 13.9101C9.12259 14.9813 11.1333 15.7729 11.1333 17.36C11.1333 18.7699 9.64642 19.5694 7.65589 19.5694C4.92394 19.5694 2.53853 18.0492 2.2323 17.8641L0 21.9836C0.402941 22.2041 3.28397 24 8.03465 24C13.0996 24 16.9316 21.1565 16.9316 16.7929C16.9316 12.4293 13.3857 10.8382 10.5087 9.47555Z" fill="#CE0E2D"/>
<path id="Vector_2" d="M30.3093 11.4959L39.4883 0.500122H32.9526L25.6271 9.99537H25.5183V0.500122H20.1471V23.8109H20.4654C22.7984 23.8109 25.5747 22.7594 25.5747 18.9511V13.5989H25.6795L33.15 23.5234H40L30.3093 11.4959Z" fill="#CE0E2D"/>
</g>
</svg>
