<svg width="64" height="64" viewBox="0 0 64 64" fill="none" xmlns="http://www.w3.org/2000/svg">
<g id="favicon">
<g id="Group 168">
<path id="Vector" d="M9.42264 43.7475C7.64506 42.9165 6.17097 42.2445 6.17097 40.8824C6.17097 39.8455 6.99834 39.0759 8.64585 39.0759C9.18573 39.0789 9.72409 39.1333 10.2536 39.2385C10.5137 39.2863 10.777 39.3141 11.0413 39.3216C12.4864 39.3216 13.2885 38.4689 13.8269 36.8431L14.0473 36.1819C12.2616 35.4454 10.3499 35.0626 8.41824 35.0547C3.55156 35.0547 0.982731 38.1799 0.986344 41.4135C0.940768 42.7817 1.40713 44.1176 2.29424 45.1602C3.32755 46.3597 4.79803 47.1437 6.17458 47.8157C8.17978 48.7985 9.98265 49.5247 9.98265 50.9807C9.98265 52.2741 8.64947 53.0076 6.86466 53.0076C4.41506 53.0076 2.27618 51.613 2.00159 51.4431L0 55.2223C0.361298 55.4247 2.94458 57.0722 7.20428 57.0722C11.7458 57.0722 15.1817 54.4636 15.1817 50.4604C15.1817 46.4572 12.0023 44.9976 9.42264 43.7475Z" fill="#CE0E2D"/>
<path id="Vector_2" d="M27.1764 45.6011L35.4067 35.5137H29.5465L22.9781 44.2246H22.8806V35.5137H18.0645V56.8989H18.3499C20.4418 56.8989 22.9311 55.9342 22.9311 52.4405V47.5304H23.0251L29.7235 56.6351H35.8656L27.1764 45.6011Z" fill="#CE0E2D"/>
<path id="Vector_3" d="M35.685 12.604C33.9833 12.9256 31.4578 14.4683 31.4687 17.2069C31.4687 19.6854 33.5028 21.1812 33.51 24.4329C33.5207 25.4403 33.268 26.433 32.7769 27.3126C32.2857 28.1923 31.5732 28.9283 30.71 29.4477C31.2989 29.3971 31.9456 29.361 32.6574 29.361C33.4729 29.3476 34.2882 29.3971 35.0961 29.5091L42.7376 20.1371C40.8126 17.2588 38.4304 14.7142 35.685 12.604Z" fill="#CE0E2D"/>
<path id="Vector_4" d="M42.1022 37.9129C43.0668 36.4171 43.186 34.0325 43.2655 31.601C43.3595 29.3357 43.8328 27.6267 46.8785 27.6267C47.5469 27.6267 48.19 27.7134 49.3498 27.7098C52.5732 27.6988 55.7338 26.8175 58.4978 25.159C53.7859 22.1254 48.3545 20.3939 42.7561 20.1406C42.3189 21.3654 38.9372 30.77 38.6807 31.5287C39.2037 32.1499 39.6636 32.8216 40.0536 33.5339C40.8917 34.9158 41.5785 36.3839 42.1022 37.9129Z" fill="#CE0E2D"/>
<path id="Vector_5" d="M25.9696 30.2315C25.583 30.2315 25.3915 29.975 25.3373 29.5342C25.2831 29.0934 23.3827 11.6175 23.0973 8.96916C23.0539 8.58257 22.96 7.88527 22.96 7.62514C22.9518 7.54532 22.9606 7.46468 22.9859 7.38853C23.0112 7.31239 23.0523 7.24247 23.1066 7.18339C23.1609 7.12432 23.2271 7.07744 23.3009 7.04584C23.3746 7.01424 23.4542 6.99865 23.5345 7.00009C24.4377 7.00009 29.373 8.15624 34.6082 11.8234C33.098 12.2497 30.3666 13.8178 30.3847 17.0658C30.3847 19.9562 32.4513 21.5206 32.4585 24.4038C32.4802 29.0971 27.0969 30.2315 25.9696 30.2315Z" fill="#EE7623"/>
<path id="Vector_6" d="M42.5391 39.1592C42.6016 39.344 42.6827 39.5219 42.7811 39.6903C42.8232 39.7785 42.8892 39.853 42.9716 39.9054C43.054 39.9578 43.1495 39.9859 43.2472 39.9866C43.3999 39.9791 43.5491 39.9384 43.6844 39.8674C44.0854 39.6867 60.0367 32.2584 62.4393 31.1529C62.8006 30.9831 63.451 30.6868 63.6714 30.5603C63.7672 30.5141 63.8485 30.4426 63.9065 30.3534C63.9644 30.2642 63.9968 30.1608 64.0001 30.0545C63.9992 29.9435 63.9679 29.8348 63.9098 29.7402C63.6063 29.2524 62.0636 27.6158 59.4839 25.8237C57.4318 26.951 54.2379 28.7141 49.476 28.7141C48.3126 28.7141 48.0308 28.6419 47.2504 28.6419C44.9272 28.6419 44.36 29.6463 44.2661 31.6804C44.2661 32.067 44.2444 32.5836 44.2227 33.1508C44.1468 34.9718 43.9301 37.4828 42.5391 39.1592Z" fill="#EE7623"/>
</g>
</g>
</svg>
