<svg width="16" height="16" viewBox="0 0 16 16" fill="none" xmlns="http://www.w3.org/2000/svg">
<g id="overview">
<mask id="mask0_189_3335" style="mask-type:alpha" maskUnits="userSpaceOnUse" x="0" y="0" width="16" height="16">
<rect id="Bounding box" width="16" height="16" fill="#D9D9D9"/>
</mask>
<g mask="url(#mask0_189_3335)">
<path id="overview_2" d="M12.6843 13.1262L13.1215 12.6903L11.8192 11.3919V9.45984H11.1984V11.6448L12.6843 13.1262ZM2.60194 13.2271C2.25196 13.2271 1.95304 13.1035 1.70518 12.8564C1.45731 12.6093 1.33337 12.3113 1.33337 11.9623V2.59808C1.33337 2.24916 1.45731 1.95114 1.70518 1.70403C1.95304 1.45691 2.25196 1.33335 2.60194 1.33335H11.9946C12.3446 1.33335 12.6435 1.45691 12.8914 1.70403C13.1393 1.95114 13.2632 2.24916 13.2632 2.59808V7.02322C13.0905 6.94968 12.9175 6.88734 12.7443 6.83622C12.5711 6.78509 12.3932 6.74428 12.2106 6.71379V2.59808C12.2106 2.54425 12.1881 2.49491 12.1431 2.45005C12.0981 2.40521 12.0486 2.38278 11.9946 2.38278H2.60194C2.54795 2.38278 2.49846 2.40521 2.45346 2.45005C2.40848 2.49491 2.38599 2.54425 2.38599 2.59808V11.9623C2.38599 12.0162 2.40848 12.0655 2.45346 12.1104C2.49846 12.1552 2.54795 12.1776 2.60194 12.1776H6.7126C6.73868 12.3714 6.77736 12.5546 6.82865 12.7272C6.87993 12.8999 6.94245 13.0665 7.01623 13.2271H2.60194ZM2.38599 12.1776V2.38278V6.71379V6.66132V12.1776ZM3.96496 10.5227H6.78412C6.81471 10.3406 6.86014 10.1633 6.92042 9.9906C6.9807 9.81795 7.04638 9.64551 7.11746 9.4733H3.96496V10.5227ZM3.96496 7.80492H8.41437C8.71667 7.54929 9.03919 7.33515 9.38196 7.16248C9.72473 6.98982 10.0918 6.86716 10.4832 6.79451V6.7555H3.96496V7.80492ZM3.96496 5.08712H10.6316V4.03769H3.96496V5.08712ZM11.5088 14.6667C10.6325 14.6667 9.88715 14.3604 9.27266 13.7478C8.65818 13.1351 8.35093 12.392 8.35093 11.5184C8.35093 10.6447 8.65818 9.9016 9.27266 9.28898C9.88715 8.67636 10.6325 8.37004 11.5088 8.37004C12.3851 8.37004 13.1305 8.67636 13.745 9.28898C14.3595 9.9016 14.6667 10.6447 14.6667 11.5184C14.6667 12.392 14.3595 13.1351 13.745 13.7478C13.1305 14.3604 12.3851 14.6667 11.5088 14.6667Z" fill="#B5B5C3"/>
</g>
</g>
</svg>
